:SAMPLES-PER-SECOND 30
:FULLY-SPECIFIED
:DEGREES
206
root  34.127 37.644 -3.63911 156.991 81.9097 140.027
RightUpLeg  -49.4196 -13.6569 1.37774
RightLeg  25.7251 -3.26157 -1.94715
RightFoot  8.30174 1.20981 -6.66446
RightToes  0.000482159 0.542163 -0.142577
Spine  65.505 -7.5504 16.6055
Spine1  11.2633 7.26143 -9.30469
HEad  -37.7631 -23.4161 8.59217
LeftShoulder1  11.5139 -18.1766 -46.3104
LeftArm  -5.16583 7.01643 -22.6742
LeftForeArm  39.6239 -53.8554 -12.1038
LeftHand  -0.25398 0.0180481 5.50724
RightShoulder  3.86315 10.9948 20.2531
RightArm  -37.1258 49.4303 5.32924
RightForeArm  -7.37455 7.61238 4.9864
RightHand  -11.5963 25.2364 -42.2848
LeftUpLeg  -45.1246 14.9445 -17.919
LeftLeg  23.7325 -1.05226 -0.170117
LeftFoot  4.52711 -1.62236 11.4028
LeftToes  1.06246e-005 4.65854e-005 -8.18502e-006
207
root  33.5716 37.7955 -3.83095 156.168 83.1227 141.988
RightUpLeg  -45.6648 -14.2134 1.68569
RightLeg  22.851 -1.52782 -0.918857
RightFoot  8.08948 0.571332 -2.95849
RightToes  0.000482159 0.542163 -0.142577
Spine  63.9767 -6.76789 15.8494
Spine1  10.7281 6.95005 -8.523
HEad  -34.735 -21.8848 5.71033
LeftShoulder1  11.7669 -17.9193 -47.936
LeftArm  -4.99828 6.88148 -21.3947
LeftForeArm  38.8043 -53.4638 -11.9756
LeftHand  -0.25398 0.0180481 5.50724
RightShoulder  4.26204 11.2519 22.6417
RightArm  -29.7889 46.0809 12.4494
RightForeArm  -8.40271 7.37765 5.88934
RightHand  -9.74325 22.6586 -39.1324
LeftUpLeg  -42.2551 16.7126 -17.0422
LeftLeg  21.8398 -1.38545 -0.27516
LeftFoot  5.74958 -1.78479 11.5996
LeftToes  1.06246e-005 4.65854e-005 -8.18502e-006
208
root  33.0086 37.9422 -3.95724 159.287 84.0936 147.95
RightUpLeg  -41.9945 -14.2503 1.49363
RightLeg  22.4371 -1.19163 -0.753127
RightFoot  5.64505 -0.265505 2.07437
RightToes  0.000482159 0.542163 -0.142577
Spine  61.8541 -6.53585 15.4636
Spine1  11.0205 6.45795 -8.24411
HEad  -32.3304 -19.8879 3.52562
LeftShoulder1  11.583 -17.596 -47.912
LeftArm  -5.44286 6.71199 -21.5779
LeftForeArm  38.2286 -52.8391 -11.7162
LeftHand  -0.25398 0.0180481 5.50724
RightShoulder  4.62908 11.5764 24.5494
RightArm  -24.5182 42.387 18.2773
RightForeArm  -8.83779 6.9908 6.44529
RightHand  -7.96973 19.85 -35.8923
LeftUpLeg  -39.3104 18.4648 -15.8921
LeftLeg  19.9077 -2.03427 -0.479562
LeftFoot  7.05713 -1.98674 11.9537
LeftToes  1.06246e-005 4.65854e-005 -8.18502e-006
209
root  32.4 38.0626 -3.99724 165.772 85.2145 157.52
RightUpLeg  -38.7066 -12.5074 0.762347
RightLeg  26.6543 -3.26241 -2.04547
RightFoot  2.26522 -0.541648 4.59057
RightToes  0.000482159 0.542163 -0.142577
Spine  60.1587 -6.24451 15.171
Spine1  10.8067 6.07847 -8.01217
HEad  -30.2693 -17.798 1.78348
LeftShoulder1  11.4348 -17.3028 -47.9683
LeftArm  -5.85161 6.92905 -21.5493
LeftForeArm  37.6366 -52.0606 -11.3952
LeftHand  -0.25398 0.0180481 5.50724
RightShoulder  5.02816 11.9471 26.4753
RightArm  -20.3608 38.0538 22.5718
RightForeArm  -8.26073 6.77449 6.85453
RightHand  -6.71887 17.5798 -33.4613
LeftUpLeg  -36.3062 20.3142 -14.0915
LeftLeg  18.2779 -2.45179 -0.737177
LeftFoot  8.43165 -2.18108 12.1702
LeftToes  1.06246e-005 4.65854e-005 -8.18502e-006
210
root  31.7827 38.1537 -3.94733 173.462 86.1729 168.358
RightUpLeg  -35.719 -9.87145 -0.0445321
RightLeg  34.757 -6.36114 -5.01027
RightFoot  -0.451871 -0.313382 3.22174
RightToes  0.000482159 0.542163 -0.142577
Spine  58.5245 -5.87606 14.8184
Spine1  10.4152 5.67245 -7.87045
HEad  -28.4191 -15.6234 0.604709
LeftShoulder1  11.2514 -16.9921 -47.9148
LeftArm  -6.16336 7.39276 -21.4559
LeftForeArm  36.8485 -50.9196 -10.9393
LeftHand  -0.25398 0.0180481 5.50724
RightShoulder  5.42239 12.2575 28.3959
RightArm  -17.3549 33.2857 25.5947
RightForeArm  -6.59659 7.13151 7.07716
RightHand  -6.05783 16.2521 -32.1151
LeftUpLeg  -32.8753 21.32 -11.4988
LeftLeg  16.5803 -1.86665 -1.22423
LeftFoot  9.92402 -2.34462 12.1163
LeftToes  1.06246e-005 4.65854e-005 -8.18502e-006
211
root  31.2006 38.1987 -3.81908 -178.738 86.7917 179.189
RightUpLeg  -32.1608 -7.36379 -0.635462
RightLeg  43.4429 -8.45546 -8.76033
RightFoot  -2.21713 -0.0851546 0.898807
RightToes  0.000482159 0.542163 -0.142577
Spine  57.0701 -5.56164 14.4329
Spine1  9.3237 5.28707 -8.03621
HEad  -25.8613 -13.5853 -0.10584
LeftShoulder1  11.0229 -16.6644 -47.7029
LeftArm  -6.06219 8.39265 -21.4489
LeftForeArm  35.8835 -49.3171 -10.3296
LeftHand  -0.25398 0.0180481 5.50724
RightShoulder  5.79289 12.337 30.6061
RightArm  -14.8288 27.9361 27.4902
RightForeArm  -5.40095 8.65465 7.29205
RightHand  -5.71543 15.4662 -31.4822
LeftUpLeg  -29.2819 21.3891 -8.60517
LeftLeg  14.9633 -0.735517 -1.93704
LeftFoot  11.2101 -2.4652 11.9718
LeftToes  1.06246e-005 4.65854e-005 -8.18502e-006
212
root  30.6456 38.1951 -3.63066 -173.292 87.04 -172.665
RightUpLeg  -27.7452 -5.32671 -1.16824
RightLeg  50.2847 -8.71531 -11.3846
RightFoot  -4.04074 -0.0522046 0.429807
RightToes  0.000482159 0.542163 -0.142577
Spine  55.0747 -5.20542 14.0404
Spine1  8.56642 4.9097 -8.07956
HEad  -22.8095 -11.8572 -0.407092
LeftShoulder1  10.8483 -16.4193 -47.5226
LeftArm  -5.76589 9.52249 -21.7256
LeftForeArm  34.6429 -47.0447 -9.52423
LeftHand  -0.25398 0.0180481 5.50724
RightShoulder  6.1036 12.2611 32.7658
RightArm  -11.9113 22.6096 28.4201
RightForeArm  -6.38635 11.2298 7.39834
RightHand  -5.43728 14.7623 -31.0266
LeftUpLeg  -26.0543 20.6557 -5.97743
LeftLeg  13.5193 0.646464 -2.62782
LeftFoot  12.3612 -2.51627 11.5882
LeftToes  1.06246e-005 4.65854e-005 -8.18502e-006
213
root  30.0996 38.1117 -3.39038 -174.375 86.9998 -171.456
RightUpLeg  -22.8151 -3.97124 -1.73446
RightLeg  54.9591 -7.72209 -12.0438
RightFoot  -6.19966 -0.0755996 0.706215
RightToes  0.000482159 0.542163 -0.142577
Spine  52.3557 -4.69528 13.398
Spine1  8.19761 4.39587 -7.73806
HEad  -19.6337 -10.3677 -0.331638
LeftShoulder1  10.6595 -16.1698 -47.2837
LeftArm  -5.40146 10.9779 -22.3957
LeftForeArm  32.9818 -44.1789 -8.61375
LeftHand  -0.25398 0.0180481 5.50724
RightShoulder  6.33752 12.1133 34.6187
RightArm  -7.90939 17.6495 28.8631
RightForeArm  -9.14832 14.4774 7.13675
RightHand  -5.13725 14.0611 -30.4109
LeftUpLeg  -23.8365 20.2509 -4.46646
LeftLeg  12.7172 1.33538 -2.91594
LeftFoot  13.4084 -2.43748 10.7005
LeftToes  1.06246e-005 4.65854e-005 -8.18502e-006
214
root  29.5399 37.9282 -3.09567 179.748 86.84 -175.246
RightUpLeg  -17.5052 -3.25105 -2.15747
RightLeg  58.0083 -6.55663 -11.6269
RightFoot  -7.58165 -0.0509111 -0.0235092
RightToes  0.000482159 0.542163 -0.142577
Spine  49.4527 -4.04425 12.3975
Spine1  7.77937 3.86544 -7.23267
HEad  -16.4523 -9.0898 -0.0675482
LeftShoulder1  10.3992 -15.8713 -46.831
LeftArm  -4.73649 12.9918 -23.4262
LeftForeArm  31.0535 -40.735 -7.63466
LeftHand  -0.25398 0.0180481 5.50724
RightShoulder  6.42436 11.8554 35.844
RightArm  -3.406 12.8548 29.3974
RightForeArm  -12.0634 18.2632 6.36081
RightHand  -4.80745 13.3438 -29.599
LeftUpLeg  -22.6196 20.9597 -4.03537
LeftLeg  12.8789 0.688552 -2.76713
LeftFoot  14.0676 -2.27508 9.67998
LeftToes  1.06246e-005 4.65854e-005 -8.18502e-006
215
root  28.9313 37.6731 -2.75917 173.46 86.8707 -179.515
RightUpLeg  -11.7307 -2.52899 -2.39482
RightLeg  59.4153 -5.73317 -10.8522
RightFoot  -8.03591 -0.0637096 0.203656
RightToes  0.000482159 0.542163 -0.142577
Spine  46.612 -3.32718 11.3365
Spine1  7.48321 3.61479 -7.02808
HEad  -13.2848 -8.02664 0.120733
LeftShoulder1  10.185 -15.6563 -46.3701
LeftArm  -3.54159 15.3206 -24.3944
LeftForeArm  29.4854 -36.8032 -6.59907
LeftHand  -0.25398 0.0180481 5.50724
RightShoulder  6.38985 11.5471 36.4576
RightArm  -0.552136 8.24234 30.0636
RightForeArm  -13.2707 22.2846 5.69739
RightHand  -4.49845 12.6051 -28.8781
LeftUpLeg  -21.8825 21.8501 -3.7805
LeftLeg  13.5074 -0.182986 -2.43887
LeftFoot  14.4061 -2.16288 9.05267
LeftToes  1.06246e-005 4.65854e-005 -8.18502e-006
